# xmcd
#
# Track frame offsets: 
#        150
#        10969
#        20199
#        32912
#        42877
#        53455
#        69061
#        81675
#        91917
#        104785
#        118792
#        134522
#        152440
#
# Disc length: 2227 seconds
#
# Revision: 0
# Processed by: cddbd v1.5.2PL0 Copyright (c) Steve Scherf et al.
# Submitted via: ExactAudioCopy v0.99pb5
#
DISCID=ab08b10d
DTITLE=Vis Peri Deri - Detela
DYEAR=2009
DGENRE=Blues
TTITLE0=Turopolje moje drago
TTITLE1=Kuja iz pakla
TTITLE2=Turopoljec travu kosi
TTITLE3=Suho grlo nos
TTITLE4=Kaj bus sad
TTITLE5=Lidija, ili Vlasta
TTITLE6=Barica
TTITLE7=Turopoljec nikad ne odustaje
TTITLE8=Tuzla time
TTITLE9=Guzica
TTITLE10=Detela
TTITLE11=Brko
TTITLE12=Mutna voda
EXTD=
EXTT0=
EXTT1=
EXTT2=
EXTT3=
EXTT4=
EXTT5=
EXTT6=
EXTT7=
EXTT8=
EXTT9=
EXTT10=
EXTT11=
EXTT12=
PLAYORDER=
